<?xml version="1.0" encoding="utf-8" standalone="no"?>
<!DOCTYPE svg PUBLIC "-//W3C//DTD SVG 1.1//EN"
  "http://www.w3.org/Graphics/SVG/1.1/DTD/svg11.dtd">
<svg xmlns:xlink="http://www.w3.org/1999/xlink" width="1085.76pt" height="191.808pt" viewBox="0 0 1085.76 191.808" xmlns="http://www.w3.org/2000/svg" version="1.1">
 <metadata>
  <rdf:RDF xmlns:dc="http://purl.org/dc/elements/1.1/" xmlns:cc="http://creativecommons.org/ns#" xmlns:rdf="http://www.w3.org/1999/02/22-rdf-syntax-ns#">
   <cc:Work>
    <dc:type rdf:resource="http://purl.org/dc/dcmitype/StillImage"/>
    <dc:date>2026-06-07T00:23:58.552654</dc:date>
    <dc:format>image/svg+xml</dc:format>
    <dc:creator>
     <cc:Agent>
      <dc:title>Matplotlib v3.10.9, https://matplotlib.org/</dc:title>
     </cc:Agent>
    </dc:creator>
   </cc:Work>
  </rdf:RDF>
 </metadata>
 <defs>
  <style type="text/css">*{stroke-linejoin: round; stroke-linecap: butt}</style>
 </defs>
 <g id="figure_1">
  <g id="patch_1">
   <path d="M 0 191.808 
L 1085.76 191.808 
L 1085.76 0 
L 0 0 
z
" style="fill: #ffffff"/>
  </g>
  <g id="axes_1">
   <g id="line2d_1">
    <path d="M 55.898182 35.932993 
L 60.792471 157.651111 
L 65.686761 35.944361 
L 70.581051 157.628235 
L 75.47534 35.978487 
L 80.36963 157.582434 
L 85.26392 36.035442 
L 90.158209 157.513612 
L 95.052499 36.115343 
L 99.946788 157.421623 
L 104.841078 36.218359 
L 109.735368 157.306264 
L 114.629657 36.344712 
L 119.523947 157.167279 
L 124.418237 36.49468 
L 129.312526 157.004349 
L 134.206816 36.668605 
L 139.101106 156.817083 
L 143.995395 36.866901 
L 148.889685 156.605018 
L 153.783974 37.090059 
L 158.678264 156.367598 
L 163.572554 37.33866 
L 168.466843 156.104173 
L 173.361133 37.613389 
L 178.255423 155.81397 
L 183.149712 37.915053 
L 188.044002 155.496083 
L 192.938291 38.244601 
L 197.832581 155.149442 
L 202.726871 38.603154 
L 207.62116 154.77278 
L 212.51545 38.992037 
L 217.40974 154.364592 
L 222.304029 39.412828 
L 227.198319 153.923076 
L 232.092608 39.867419 
L 236.986898 153.446063 
L 241.881188 40.358092 
L 246.775477 152.930914 
L 251.669767 40.887631 
L 256.564057 152.374384 
L 261.458346 41.459472 
L 266.352636 151.772431 
L 271.246926 42.077914 
L 276.141215 151.119937 
L 281.035505 42.748428 
L 285.929794 150.4103 
L 290.824084 43.478119 
L 295.718374 149.634808 
L 300.612663 44.276446 
L 305.506953 148.781634 
L 310.401243 45.156391 
L 315.295532 147.834153 
L 320.189822 46.136481 
L 325.084111 146.76793 
L 329.978401 47.244522 
L 334.872691 145.544875 
L 339.76698 48.525223 
L 344.66127 144.100658 
L 349.55556 50.057956 
L 354.449849 142.313206 
L 359.344139 52.007689 
L 364.238429 139.904193 
L 369.132718 54.838084 
L 374.027008 135.995786 
L 378.921297 62.047174 
L 383.815587 87.702757 
L 388.709877 109.667594 
L 393.604166 88.512796 
L 398.498456 105.19334 
L 403.392746 90.262875 
L 408.287035 103.378193 
L 413.181325 91.364547 
L 418.075614 102.282345 
L 422.969904 92.136561 
L 427.864194 101.519806 
L 432.758483 92.715897 
L 437.652773 100.947939 
L 442.547063 93.170735 
L 447.441352 100.498499 
L 452.335642 93.539394 
L 457.229931 100.133678 
L 462.124221 93.845369 
L 467.018511 99.830424 
L 471.9128 94.104019 
L 476.80709 99.573697 
L 481.70138 94.325892 
L 486.595669 99.353175 
L 491.489959 94.51851 
L 496.384249 99.161489 
L 501.278538 94.687415 
L 506.172828 98.99321 
L 511.067117 94.836788 
L 515.961407 98.844233 
L 520.855697 94.969858 
L 525.749986 98.711389 
L 530.644276 95.089161 
L 535.538566 98.592181 
L 540.432855 95.196723 
L 545.327145 98.484618 
L 550.221434 95.294181 
L 555.115724 98.387084 
L 560.010014 95.382878 
L 564.904303 98.298254 
L 569.798593 95.463925 
L 574.692883 98.217032 
L 579.587172 95.53825 
L 584.481462 98.142499 
L 589.375751 95.606637 
L 594.270041 98.073881 
L 599.164331 95.66975 
L 604.05862 98.010521 
L 608.95291 95.728157 
L 613.8472 97.951854 
L 618.741489 95.782348 
L 623.635779 97.897396 
L 628.530069 95.832745 
L 633.424358 97.846725 
L 638.318648 95.879719 
L 643.212937 97.799476 
L 648.107227 95.923591 
L 653.001517 97.755328 
L 657.895806 95.964645 
L 662.790096 97.714 
L 667.684386 96.003131 
L 672.578675 97.675242 
L 677.472965 96.03927 
L 682.367254 97.638834 
L 687.261544 96.073259 
L 692.155834 97.60458 
L 697.050123 96.105273 
L 701.944413 97.572305 
L 706.838703 96.135471 
L 711.732992 97.541852 
L 716.627282 96.163993 
L 721.521571 97.51308 
L 726.415861 96.190966 
L 731.310151 97.485862 
L 736.20444 96.216505 
L 741.09873 97.460084 
L 745.99302 96.240714 
L 750.887309 97.435641 
L 755.781599 96.263688 
L 760.675889 97.41244 
L 765.570178 96.285511 
L 770.464468 97.390395 
L 775.358757 96.306262 
L 780.253047 97.369428 
L 785.147337 96.326012 
L 790.041626 97.349468 
L 794.935916 96.344827 
L 799.830206 97.330448 
L 804.724495 96.362765 
L 809.618785 97.31231 
L 814.513074 96.379883 
L 819.407364 97.294998 
L 824.301654 96.396231 
L 829.195943 97.278462 
L 834.090233 96.411855 
L 838.984523 97.262655 
L 843.878812 96.426798 
L 848.773102 97.247533 
L 853.667392 96.441099 
L 858.561681 97.233058 
L 863.455971 96.454797 
L 868.35026 97.219191 
L 873.24455 96.467924 
L 878.13884 97.2059 
L 883.033129 96.480513 
L 887.927419 97.193152 
L 892.821709 96.492592 
L 897.715998 97.180918 
L 902.610288 96.504189 
L 907.504577 97.16917 
L 912.398867 96.515329 
L 917.293157 97.157883 
L 922.187446 96.526037 
L 927.081736 97.147032 
L 931.976026 96.536334 
L 936.870315 97.136597 
L 941.764605 96.546242 
L 946.658894 97.126554 
L 951.553184 96.555778 
L 956.447474 97.116887 
L 961.341763 96.564963 
L 966.236053 97.107575 
L 971.130343 96.573812 
L 976.024632 97.098602 
L 980.918922 96.582342 
L 985.813212 97.089951 
L 990.707501 96.590567 
L 995.601791 97.081609 
L 1000.49608 96.598502 
L 1005.39037 97.073559 
L 1010.28466 96.60616 
L 1015.178949 97.06579 
L 1020.073239 96.613553 
L 1024.967529 97.058289 
L 1029.861818 96.620694 
L 1029.861818 96.620694 
" clip-path="url(#p522d86e8d6)" style="fill: none; stroke: #1f77b4; stroke-width: 1.5; stroke-linecap: square"/>
   </g>
   <g id="line2d_2">
    <path d="M 55.898182 88.433015 
L 60.792471 105.831218 
L 65.686761 88.423669 
L 70.581051 105.852987 
L 75.47534 88.395448 
L 80.36963 105.897022 
L 85.26392 88.347794 
L 90.158209 105.964359 
L 95.052499 88.279741 
L 99.946788 106.056648 
L 104.841078 88.189847 
L 109.735368 106.176298 
L 114.629657 88.076098 
L 119.523947 106.326704 
L 124.418237 87.935749 
L 129.312526 106.512609 
L 134.206816 87.765097 
L 139.101106 106.7407 
L 143.995395 87.559119 
L 148.889685 107.020634 
L 153.783974 87.310916 
L 158.678264 107.366891 
L 163.572554 87.010819 
L 168.466843 107.802443 
L 173.361133 86.644947 
L 178.255423 108.366847 
L 183.149712 86.192996 
L 188.044002 109.137256 
L 192.938291 85.626403 
L 197.832581 110.29854 
L 202.726871 84.925692 
L 207.62116 112.51525 
L 212.51545 84.531312 
L 217.40974 125.746979 
L 222.304029 26.497613 
L 227.198319 162.094667 
L 232.092608 30.485443 
L 236.986898 161.06214 
L 241.881188 32.089203 
L 246.775477 160.307857 
L 251.669767 33.12469 
L 256.564057 159.660538 
L 261.458346 33.938222 
L 266.352636 159.065726 
L 271.246926 34.645665 
L 276.141215 158.496639 
L 281.035505 35.29848 
L 285.929794 157.937988 
L 290.824084 35.923703 
L 295.718374 157.380156 
L 300.612663 36.537275 
L 305.506953 156.81662 
L 310.401243 37.149458 
L 315.295532 156.242645 
L 320.189822 37.767372 
L 325.084111 155.654577 
L 329.978401 38.3963 
L 334.872691 155.049415 
L 339.76698 39.040429 
L 344.66127 154.424541 
L 349.55556 39.703297 
L 354.449849 153.777541 
L 359.344139 40.38809 
L 364.238429 153.106061 
L 369.132718 41.097851 
L 374.027008 152.407698 
L 378.921297 41.835652 
L 383.815587 151.67989 
L 388.709877 42.604744 
L 393.604166 150.919814 
L 398.498456 43.408714 
L 403.392746 150.124262 
L 408.287035 44.25166 
L 413.181325 149.289492 
L 418.075614 45.13841 
L 422.969904 148.411037 
L 427.864194 46.074808 
L 432.758483 147.483449 
L 437.652773 47.068117 
L 442.547063 146.499934 
L 447.441352 48.127605 
L 452.335642 145.451819 
L 457.229931 49.265441 
L 462.124221 144.327747 
L 467.018511 50.498124 
L 471.9128 143.112396 
L 476.80709 51.848899 
L 481.70138 141.784344 
L 486.595669 53.3521 
L 491.489959 140.312276 
L 496.384249 55.061668 
L 501.278538 138.647707 
L 506.172828 57.069759 
L 511.067117 136.709457 
L 515.961407 59.554322 
L 520.855697 134.345314 
L 525.749986 62.934157 
L 530.644276 131.212895 
L 535.538566 68.660271 
L 540.432855 126.160486 
L 545.327145 103.890835 
L 550.221434 72.912638 
L 555.115724 110.224401 
L 560.010014 81.801445 
L 564.904303 107.708671 
L 569.798593 85.04116 
L 574.692883 106.072042 
L 579.587172 86.943502 
L 584.481462 104.900317 
L 589.375751 88.255489 
L 594.270041 104.00555 
L 599.164331 89.23808 
L 604.05862 103.292327 
L 608.95291 90.012079 
L 613.8472 102.706315 
L 618.741489 90.643006 
L 623.635779 102.213848 
L 628.530069 91.170241 
L 633.424358 101.792721 
L 638.318648 91.619224 
L 643.212937 101.42756 
L 648.107227 92.0073 
L 653.001517 101.107313 
L 657.895806 92.346795 
L 662.790096 100.823787 
L 667.684386 92.646765 
L 672.578675 100.570751 
L 677.472965 92.914046 
L 682.367254 100.343367 
L 687.261544 93.153914 
L 692.155834 100.137807 
L 697.050123 93.370523 
L 701.944413 99.950998 
L 706.838703 93.567193 
L 711.732992 99.780438 
L 716.627282 93.746618 
L 721.521571 99.624066 
L 726.415861 93.911012 
L 731.310151 99.480166 
L 736.20444 94.062211 
L 741.09873 99.347296 
L 745.99302 94.201755 
L 750.887309 99.224233 
L 755.781599 94.330947 
L 760.675889 99.109934 
L 765.570178 94.450897 
L 770.464468 99.003503 
L 775.358757 94.562558 
L 780.253047 98.904163 
L 785.147337 94.666753 
L 790.041626 98.811238 
L 794.935916 94.764197 
L 799.830206 98.724139 
L 804.724495 94.855515 
L 809.618785 98.642346 
L 814.513074 94.941257 
L 819.407364 98.565401 
L 824.301654 95.021906 
L 829.195943 98.492897 
L 834.090233 95.097891 
L 838.984523 98.424473 
L 843.878812 95.169592 
L 848.773102 98.359806 
L 853.667392 95.237351 
L 858.561681 98.298606 
L 863.455971 95.301473 
L 868.35026 98.240614 
L 873.24455 95.36223 
L 878.13884 98.185594 
L 883.033129 95.419871 
L 887.927419 98.133334 
L 892.821709 95.474618 
L 897.715998 98.083642 
L 902.610288 95.526672 
L 907.504577 98.036343 
L 912.398867 95.576219 
L 917.293157 97.991278 
L 922.187446 95.623425 
L 927.081736 97.948301 
L 931.976026 95.668443 
L 936.870315 97.90728 
L 941.764605 95.711413 
L 946.658894 97.868091 
L 951.553184 95.752462 
L 956.447474 97.830624 
L 961.341763 95.791708 
L 966.236053 97.794775 
L 971.130343 95.829259 
L 976.024632 97.760449 
L 980.918922 95.865215 
L 985.813212 97.727558 
L 990.707501 95.899668 
L 995.601791 97.696021 
L 1000.49608 95.932703 
L 1005.39037 97.665763 
L 1010.28466 95.964399 
L 1015.178949 97.636714 
L 1020.073239 95.994829 
L 1024.967529 97.608809 
L 1029.861818 96.024061 
L 1029.861818 96.024061 
" clip-path="url(#p522d86e8d6)" style="fill: none; stroke: #ff7f0e; stroke-width: 1.5; stroke-linecap: square"/>
   </g>
   <g id="line2d_3">
    <path d="M 55.898182 88.102091 
L 60.792471 105.504859 
L 65.686761 88.098546 
L 70.581051 105.512036 
L 75.47534 88.087888 
L 80.36963 105.526437 
L 85.26392 88.07005 
L 90.158209 105.548156 
L 95.052499 88.044916 
L 99.946788 105.577335 
L 104.841078 88.012323 
L 109.735368 105.614169 
L 114.629657 87.972055 
L 119.523947 105.658908 
L 124.418237 87.923842 
L 129.312526 105.711862 
L 134.206816 87.867349 
L 139.101106 105.773409 
L 143.995395 87.802175 
L 148.889685 105.844001 
L 153.783974 87.727843 
L 158.678264 105.924176 
L 163.572554 87.643785 
L 168.466843 106.014569 
L 173.361133 87.549335 
L 178.255423 106.11593 
L 183.149712 87.443705 
L 188.044002 106.229141 
L 192.938291 87.32597 
L 197.832581 106.355246 
L 202.726871 87.195036 
L 207.62116 106.495482 
L 212.51545 87.049607 
L 217.40974 106.651318 
L 222.304029 86.888138 
L 227.198319 106.824517 
L 232.092608 86.708777 
L 236.986898 107.017204 
L 241.881188 86.509284 
L 246.775477 107.231969 
L 251.669767 86.286923 
L 256.564057 107.472 
L 261.458346 86.038314 
L 266.352636 107.741278 
L 271.246926 85.759217 
L 276.141215 108.044851 
L 281.035505 85.44423 
L 285.929794 108.389243 
L 290.824084 85.086322 
L 295.718374 108.783081 
L 300.612663 84.676119 
L 305.506953 109.238095 
L 310.401243 84.200729 
L 315.295532 109.770808 
L 320.189822 83.641725 
L 325.084111 110.405541 
L 329.978401 82.971405 
L 334.872691 111.180264 
L 339.76698 82.145164 
L 344.66127 112.159188 
L 349.55556 81.083723 
L 354.449849 113.464284 
L 359.344139 79.622143 
L 364.238429 115.37385 
L 369.132718 77.296534 
L 374.027008 118.766042 
L 378.921297 70.606319 
L 383.815587 166.527532 
L 388.709877 23.535188 
L 393.604166 165.155103 
L 398.498456 28.57271 
L 403.392746 162.829318 
L 408.287035 30.968533 
L 413.181325 161.133804 
L 418.075614 32.663557 
L 422.969904 159.748894 
L 427.864194 34.044382 
L 432.758483 158.536973 
L 437.652773 35.254198 
L 442.547063 157.429257 
L 447.441352 36.361821 
L 452.335642 156.38678 
L 457.229931 37.40569 
L 462.124221 155.385331 
L 467.018511 38.409563 
L 471.9128 154.408744 
L 476.80709 39.389275 
L 481.70138 153.445555 
L 486.595669 40.356059 
L 491.489959 152.487187 
L 496.384249 41.31833 
L 501.278538 151.526889 
L 506.172828 42.28272 
L 511.067117 150.559068 
L 515.961407 43.254733 
L 520.855697 149.578854 
L 525.749986 44.239169 
L 530.644276 148.581782 
L 535.538566 45.24044 
L 540.432855 147.563543 
L 545.327145 46.262804 
L 550.221434 146.519779 
L 555.115724 47.310576 
L 560.010014 145.44587 
L 564.904303 48.388327 
L 569.798593 144.336724 
L 574.692883 49.501099 
L 579.587172 143.186512 
L 584.481462 50.654662 
L 589.375751 141.988337 
L 594.270041 51.855833 
L 599.164331 140.733785 
L 604.05862 53.112923 
L 608.95291 139.41227 
L 613.8472 54.436368 
L 618.741489 138.010059 
L 623.635779 55.839678 
L 628.530069 136.508725 
L 633.424358 57.340932 
L 638.318648 134.882565 
L 643.212937 58.965252 
L 648.107227 133.094007 
L 653.001517 60.749168 
L 657.895806 131.084768 
L 662.790096 62.748931 
L 667.684386 128.756883 
L 672.578675 65.057986 
L 677.472965 125.925531 
L 682.367254 67.849038 
L 687.261544 122.171464 
L 692.155834 71.496723 
L 697.050123 116.140951 
L 701.944413 77.022089 
L 706.838703 93.200553 
L 711.732992 128.807317 
L 716.627282 77.015833 
L 721.521571 116.783129 
L 726.415861 81.283804 
L 731.310151 112.582114 
L 736.20444 83.722448 
L 741.09873 110.119698 
L 745.99302 85.403039 
L 750.887309 108.41652 
L 755.781599 86.665945 
L 760.675889 107.135773 
L 765.570178 87.66508 
L 770.464468 106.12252 
L 775.358757 88.483218 
L 780.253047 105.292959 
L 785.147337 89.169944 
L 790.041626 104.596778 
L 794.935916 89.757269 
L 799.830206 104.001474 
L 804.724495 90.26702 
L 809.618785 103.484877 
L 814.513074 90.714727 
L 819.407364 103.031216 
L 824.301654 91.111813 
L 829.195943 102.62889 
L 834.090233 91.466917 
L 838.984523 102.269131 
L 843.878812 91.786716 
L 848.773102 101.945159 
L 853.667392 92.076478 
L 858.561681 101.651633 
L 863.455971 92.340421 
L 868.35026 101.38427 
L 873.24455 92.581975 
L 878.13884 101.139594 
L 883.033129 92.803961 
L 887.927419 100.914743 
L 892.821709 93.008725 
L 897.715998 100.707338 
L 902.610288 93.198241 
L 907.504577 100.51538 
L 912.398867 93.374178 
L 917.293157 100.337175 
L 922.187446 93.537962 
L 927.081736 100.171279 
L 931.976026 93.69082 
L 936.870315 100.016449 
L 941.764605 93.833814 
L 946.658894 99.871609 
L 951.553184 93.967867 
L 956.447474 99.735823 
L 961.341763 94.093788 
L 966.236053 99.608271 
L 971.130343 94.21229 
L 976.024632 99.488234 
L 980.918922 94.324 
L 985.813212 99.375075 
L 990.707501 94.429475 
L 995.601791 99.268228 
L 1000.49608 94.529214 
L 1005.39037 99.167192 
L 1010.28466 94.62366 
L 1015.178949 99.071515 
L 1020.073239 94.713211 
L 1024.967529 98.980794 
L 1029.861818 94.798226 
L 1029.861818 94.798226 
" clip-path="url(#p522d86e8d6)" style="fill: none; stroke: #2ca02c; stroke-width: 1.5; stroke-linecap: square"/>
   </g>
   <g id="line2d_4">
    <path d="M 55.898182 88.0394 
L 60.792471 105.44742 
L 65.686761 88.037623 
L 70.581051 105.450835 
L 75.47534 88.032287 
L 80.36963 105.457677 
L 85.26392 88.023373 
L 90.158209 105.467967 
L 95.052499 88.010854 
L 99.946788 105.481737 
L 104.841078 87.994688 
L 109.735368 105.499033 
L 114.629657 87.974822 
L 119.523947 105.51991 
L 124.418237 87.951189 
L 129.312526 105.544436 
L 134.206816 87.923711 
L 139.101106 105.572693 
L 143.995395 87.892294 
L 148.889685 105.604775 
L 153.783974 87.856829 
L 158.678264 105.640791 
L 163.572554 87.817191 
L 168.466843 105.680867 
L 173.361133 87.773239 
L 178.255423 105.725144 
L 183.149712 87.724812 
L 188.044002 105.773781 
L 192.938291 87.671729 
L 197.832581 105.826958 
L 202.726871 87.613786 
L 207.62116 105.884876 
L 212.51545 87.550755 
L 217.40974 105.94776 
L 222.304029 87.482381 
L 227.198319 106.015863 
L 232.092608 87.408377 
L 236.986898 106.089464 
L 241.881188 87.328424 
L 246.775477 106.16888 
L 251.669767 87.242163 
L 256.564057 106.254461 
L 261.458346 87.149192 
L 266.352636 106.346603 
L 271.246926 87.04906 
L 276.141215 106.445745 
L 281.035505 86.941258 
L 285.929794 106.552386 
L 290.824084 86.825215 
L 295.718374 106.667085 
L 300.612663 86.70028 
L 305.506953 106.790475 
L 310.401243 86.56572 
L 315.295532 106.923272 
L 320.189822 86.420696 
L 325.084111 107.066293 
L 329.978401 86.264249 
L 334.872691 107.22047 
L 339.76698 86.095276 
L 344.66127 107.386874 
L 349.55556 85.912503 
L 354.449849 107.566742 
L 359.344139 85.714448 
L 364.238429 107.761508 
L 369.132718 85.499377 
L 374.027008 107.97285 
L 378.921297 85.265241 
L 383.815587 108.202744 
L 388.709877 85.009607 
L 393.604166 108.453535 
L 398.498456 84.729547 
L 403.392746 108.728035 
L 408.287035 84.421507 
L 413.181325 109.029651 
L 418.075614 84.081116 
L 422.969904 109.362559 
L 427.864194 83.702914 
L 432.758483 109.731956 
L 437.652773 83.279976 
L 442.547063 110.144412 
L 447.441352 82.803325 
L 452.335642 110.608394 
L 457.229931 82.261059 
L 462.124221 111.135069 
L 467.018511 81.63692 
L 471.9128 111.73958 
L 476.80709 80.907888 
L 481.70138 112.443178 
L 486.595669 80.039836 
L 491.489959 113.277015 
L 496.384249 78.979022 
L 501.278538 114.289425 
L 506.172828 77.633468 
L 511.067117 115.561463 
L 515.961407 75.82536 
L 520.855697 117.24529 
L 525.749986 73.135931 
L 530.644276 119.683501 
L 535.538566 68.113791 
L 540.432855 124.029849 
L 545.327145 33.596792 
L 550.221434 176.544 
L 555.115724 28.014025 
L 560.010014 166.907661 
L 564.904303 31.286012 
L 569.798593 162.907024 
L 574.692883 33.693691 
L 579.587172 160.228139 
L 584.481462 35.652447 
L 589.375751 158.123167 
L 594.270041 37.350945 
L 599.164331 156.330511 
L 604.05862 38.885247 
L 608.95291 154.728734 
L 613.8472 40.310355 
L 618.741489 153.251636 
L 623.635779 41.66066 
L 628.530069 151.859085 
L 633.424358 42.959187 
L 638.318648 150.52479 
L 643.212937 44.222231 
L 648.107227 149.230436 
L 653.001517 45.461902 
L 657.895806 147.962583 
L 662.790096 46.687609 
L 667.684386 146.710885 
L 672.578675 47.906996 
L 677.472965 145.467009 
L 682.367254 49.126545 
L 687.261544 144.223923 
L 692.155834 50.352017 
L 697.050123 142.97541 
L 701.944413 51.588768 
L 706.838703 141.715698 
L 711.732992 52.842021 
L 716.627282 140.439164 
L 721.521571 54.117109 
L 726.415861 139.140061 
L 731.310151 55.419716 
L 736.20444 137.812242 
L 741.09873 56.756158 
L 745.99302 136.448852 
L 750.887309 58.133716 
L 755.781599 135.041939 
L 760.675889 59.561086 
L 765.570178 133.581942 
L 770.464468 61.049003 
L 775.358757 132.056962 
L 780.253047 62.611164 
L 785.147337 130.451664 
L 790.041626 64.265662 
L 794.935916 128.745562 
L 799.830206 66.037327 
L 804.724495 126.910141 
L 809.618785 67.961804 
L 814.513074 124.903762 
L 819.407364 70.093196 
L 824.301654 122.661827 
L 829.195943 72.519866 
L 834.090233 120.075739 
L 838.984523 75.401882 
L 843.878812 116.940724 
L 848.773102 79.079928 
L 853.667392 112.79404 
L 858.561681 84.530613 
L 863.455971 106.173163 
L 868.35026 98.506783 
L 873.24455 62.173918 
L 878.13884 124.083667 
L 883.033129 74.193201 
L 887.927419 116.81139 
L 892.821709 78.774136 
L 897.715998 113.352421 
L 902.610288 81.509837 
L 907.504577 111.104562 
L 912.398867 83.423183 
L 917.293157 109.461924 
L 922.187446 84.873489 
L 927.081736 108.182612 
L 931.976026 86.028085 
L 936.870315 107.145111 
L 941.764605 86.97826 
L 946.658894 106.279675 
L 951.553184 87.77919 
L 956.447474 105.542584 
L 961.341763 88.466717 
L 966.236053 104.904644 
L 971.130343 89.065403 
L 976.024632 104.345412 
L 980.918922 89.59279 
L 985.813212 103.850031 
L 990.707501 90.061829 
L 995.601791 103.407375 
L 1000.49608 90.482339 
L 1005.39037 103.008905 
L 1010.28466 90.861936 
L 1015.178949 102.647933 
L 1020.073239 91.206637 
L 1024.967529 102.319127 
L 1029.861818 91.521274 
L 1029.861818 91.521274 
" clip-path="url(#p522d86e8d6)" style="fill: none; stroke: #d62728; stroke-width: 1.5; stroke-linecap: square"/>
   </g>
   <g id="line2d_5">
    <path d="M 55.898182 88.241702 
L 60.792471 105.654334 
L 65.686761 88.240753 
L 70.581051 105.656296 
L 75.47534 88.237904 
L 80.36963 105.660224 
L 85.26392 88.233151 
L 90.158209 105.666126 
L 95.052499 88.226483 
L 99.946788 105.674012 
L 104.841078 88.217887 
L 109.735368 105.6839 
L 114.629657 88.207347 
L 119.523947 105.695808 
L 124.418237 88.194841 
L 129.312526 105.70976 
L 134.206816 88.180346 
L 139.101106 105.725785 
L 143.995395 88.163831 
L 148.889685 105.743915 
L 153.783974 88.145264 
L 158.678264 105.764188 
L 163.572554 88.124606 
L 168.466843 105.786644 
L 173.361133 88.101815 
L 178.255423 105.811332 
L 183.149712 88.076843 
L 188.044002 105.838303 
L 192.938291 88.049638 
L 197.832581 105.867616 
L 202.726871 88.020141 
L 207.62116 105.899335 
L 212.51545 87.988289 
L 217.40974 105.933529 
L 222.304029 87.95401 
L 227.198319 105.970275 
L 232.092608 87.917228 
L 236.986898 106.009659 
L 241.881188 87.877859 
L 246.775477 106.051771 
L 251.669767 87.835811 
L 256.564057 106.096713 
L 261.458346 87.790983 
L 266.352636 106.144593 
L 271.246926 87.743267 
L 276.141215 106.195532 
L 281.035505 87.692544 
L 285.929794 106.249658 
L 290.824084 87.638685 
L 295.718374 106.307115 
L 300.612663 87.581547 
L 305.506953 106.368055 
L 310.401243 87.520979 
L 315.295532 106.432648 
L 320.189822 87.456811 
L 325.084111 106.501078 
L 329.978401 87.388863 
L 334.872691 106.573546 
L 339.76698 87.316932 
L 344.66127 106.650271 
L 349.55556 87.240803 
L 354.449849 106.731494 
L 359.344139 87.160234 
L 364.238429 106.817479 
L 369.132718 87.074965 
L 374.027008 106.908517 
L 378.921297 86.984707 
L 383.815587 107.004925 
L 388.709877 86.889142 
L 393.604166 107.107058 
L 398.498456 86.787922 
L 403.392746 107.215303 
L 408.287035 86.68066 
L 413.181325 107.330092 
L 418.075614 86.566928 
L 422.969904 107.451904 
L 427.864194 86.446249 
L 432.758483 107.581273 
L 437.652773 86.318096 
L 442.547063 107.718795 
L 447.441352 86.181874 
L 452.335642 107.86514 
L 457.229931 86.036921 
L 462.124221 108.021059 
L 467.018511 85.882488 
L 471.9128 108.187406 
L 476.80709 85.717732 
L 481.70138 108.365144 
L 486.595669 85.541695 
L 491.489959 108.555376 
L 496.384249 85.353282 
L 501.278538 108.759364 
L 506.172828 85.151242 
L 511.067117 108.978564 
L 515.961407 84.934131 
L 520.855697 109.214666 
L 525.749986 84.700274 
L 530.644276 109.469641 
L 535.538566 84.447715 
L 540.432855 109.745815 
L 545.327145 84.174152 
L 550.221434 110.045945 
L 555.115724 83.876851 
L 560.010014 110.373341 
L 564.904303 83.552537 
L 569.798593 110.732013 
L 574.692883 83.197242 
L 579.587172 111.126884 
L 584.481462 82.806099 
L 589.375751 111.564086 
L 594.270041 82.373054 
L 599.164331 112.051378 
L 604.05862 81.89045 
L 608.95291 112.598782 
L 613.8472 81.348419 
L 618.741489 113.219537 
L 623.635779 80.73395 
L 628.530069 113.931634 
L 633.424358 80.029406 
L 638.318648 114.76039 
L 643.212937 79.21006 
L 648.107227 115.743025 
L 653.001517 78.239736 
L 657.895806 116.937516 
L 662.790096 77.062502 
L 667.684386 118.441555 
L 672.578675 75.585182 
L 677.472965 120.439756 
L 682.367254 73.635262 
L 687.261544 123.351299 
L 692.155834 70.83808 
L 697.050123 128.530336 
L 701.944413 66.171461 
L 706.838703 150.615289 
L 711.732992 15.264 
L 716.627282 165.904776 
L 721.521571 28.182494 
L 726.415861 160.745141 
L 731.310151 33.283903 
L 736.20444 157.404618 
L 741.09873 36.657612 
L 745.99302 154.810599 
L 750.887309 39.284111 
L 755.781599 152.621951 
L 760.675889 41.50096 
L 765.570178 150.684102 
L 770.464468 43.463791 
L 775.358757 148.913617 
L 780.253047 45.257124 
L 785.147337 147.260199 
L 790.041626 46.932054 
L 794.935916 145.691053 
L 799.830206 48.521957 
L 804.724495 144.183467 
L 809.618785 50.049991 
L 814.513074 142.720907 
L 819.407364 51.533057 
L 824.301654 141.290795 
L 829.195943 52.984058 
L 834.090233 139.883161 
L 838.984523 54.413273 
L 843.878812 138.489773 
L 848.773102 55.829249 
L 853.667392 137.103549 
L 858.561681 57.23941 
L 863.455971 135.718122 
L 868.35026 58.650507 
L 873.24455 134.327514 
L 878.13884 60.068974 
L 883.033129 132.92584 
L 887.927419 61.501245 
L 892.821709 131.507048 
L 897.715998 62.954061 
L 902.610288 130.064629 
L 907.504577 64.43481 
L 912.398867 128.591287 
L 917.293157 65.951941 
L 922.187446 127.078524 
L 927.081736 67.515503 
L 931.976026 125.516068 
L 936.870315 69.137912 
L 941.764605 123.891053 
L 946.658894 70.835089 
L 951.553184 122.186782 
L 956.447474 72.628258 
L 961.341763 120.380727 
L 966.236053 74.54694 
L 971.130343 118.441158 
L 976.024632 76.634297 
L 980.918922 116.320997 
L 985.813212 78.957462 
L 990.707501 113.945599 
L 995.601791 81.629788 
L 1000.49608 111.185401 
L 1005.39037 84.866505 
L 1010.28466 107.782941 
L 1015.178949 89.160167 
L 1020.073239 103.091704 
L 1024.967529 96.124323 
L 1029.861818 94.185665 
L 1029.861818 94.185665 
" clip-path="url(#p522d86e8d6)" style="fill: none; stroke: #9467bd; stroke-width: 1.5; stroke-linecap: square"/>
   </g>
   <g id="line2d_6">
    <path d="M 55.898182 88.065267 
L 60.792471 105.481367 
L 65.686761 88.064702 
L 70.581051 105.482486 
L 75.47534 88.063005 
L 80.36963 105.484726 
L 85.26392 88.060175 
L 90.158209 105.488091 
L 95.052499 88.056207 
L 99.946788 105.492583 
L 104.841078 88.051096 
L 109.735368 105.49821 
L 114.629657 88.044835 
L 119.523947 105.504979 
L 124.418237 88.037416 
L 129.312526 105.512899 
L 134.206816 88.028829 
L 139.101106 105.521981 
L 143.995395 88.019062 
L 148.889685 105.532238 
L 153.783974 88.008102 
L 158.678264 105.543683 
L 163.572554 87.995933 
L 168.466843 105.556333 
L 173.361133 87.982538 
L 178.255423 105.570204 
L 183.149712 87.967899 
L 188.044002 105.585318 
L 192.938291 87.951996 
L 197.832581 105.601694 
L 202.726871 87.934804 
L 207.62116 105.619358 
L 212.51545 87.916301 
L 217.40974 105.638333 
L 222.304029 87.896458 
L 227.198319 105.658648 
L 232.092608 87.875247 
L 236.986898 105.680333 
L 241.881188 87.852635 
L 246.775477 105.703421 
L 251.669767 87.82859 
L 256.564057 105.727946 
L 261.458346 87.803074 
L 266.352636 105.753947 
L 271.246926 87.776048 
L 276.141215 105.781464 
L 281.035505 87.747469 
L 285.929794 105.81054 
L 290.824084 87.717291 
L 295.718374 105.841222 
L 300.612663 87.685466 
L 305.506953 105.873561 
L 310.401243 87.651941 
L 315.295532 105.90761 
L 320.189822 87.61666 
L 325.084111 105.943428 
L 329.978401 87.579563 
L 334.872691 105.981076 
L 339.76698 87.540584 
L 344.66127 106.02062 
L 349.55556 87.499654 
L 354.449849 106.062133 
L 359.344139 87.456699 
L 364.238429 106.10569 
L 369.132718 87.411638 
L 374.027008 106.151373 
L 378.921297 87.364386 
L 383.815587 106.19927 
L 388.709877 87.314852 
L 393.604166 106.249477 
L 398.498456 87.262935 
L 403.392746 106.302094 
L 408.287035 87.208529 
L 413.181325 106.357232 
L 418.075614 87.15152 
L 422.969904 106.415007 
L 427.864194 87.091785 
L 432.758483 106.475546 
L 437.652773 87.02919 
L 442.547063 106.538988 
L 447.441352 86.963592 
L 452.335642 106.605479 
L 457.229931 86.894835 
L 462.124221 106.675179 
L 467.018511 86.822752 
L 471.9128 106.748261 
L 476.80709 86.747161 
L 481.70138 106.824913 
L 486.595669 86.667864 
L 491.489959 106.90534 
L 496.384249 86.584646 
L 501.278538 106.989761 
L 506.172828 86.497275 
L 511.067117 107.07842 
L 515.961407 86.405494 
L 520.855697 107.171579 
L 525.749986 86.309027 
L 530.644276 107.269527 
L 535.538566 86.207567 
L 540.432855 107.372579 
L 545.327145 86.100781 
L 550.221434 107.481084 
L 555.115724 85.988301 
L 560.010014 107.595422 
L 564.904303 85.869721 
L 569.798593 107.716015 
L 574.692883 85.744593 
L 579.587172 107.843331 
L 584.481462 85.612421 
L 589.375751 107.977887 
L 594.270041 85.47265 
L 599.164331 108.120261 
L 604.05862 85.324666 
L 608.95291 108.271096 
L 613.8472 85.167777 
L 618.741489 108.431116 
L 623.635779 85.001209 
L 628.530069 108.601133 
L 633.424358 84.824088 
L 638.318648 108.782067 
L 643.212937 84.635421 
L 648.107227 108.974962 
L 653.001517 84.434082 
L 657.895806 109.181008 
L 662.790096 84.218777 
L 667.684386 109.401571 
L 672.578675 83.988023 
L 677.472965 109.638227 
L 682.367254 83.740097 
L 687.261544 109.892805 
L 692.155834 83.472995 
L 697.050123 110.167445 
L 701.944413 83.184359 
L 706.838703 110.464669 
L 711.732992 82.871398 
L 716.627282 110.787475 
L 721.521571 82.530774 
L 726.415861 111.139462 
L 731.310151 82.158455 
L 736.20444 111.525 
L 741.09873 81.749508 
L 745.99302 111.94946 
L 750.887309 81.297819 
L 755.781599 112.419539 
L 760.675889 80.795687 
L 765.570178 112.943731 
L 770.464468 80.233231 
L 775.358757 113.533021 
L 780.253047 79.597493 
L 785.147337 114.201946 
L 790.041626 78.871026 
L 794.935916 114.970299 
L 799.830206 78.029566 
L 804.724495 115.865984 
L 809.618785 77.037966 
L 814.513074 116.930099 
L 819.407364 75.842566 
L 824.301654 118.226764 
L 829.195943 74.355378 
L 834.090233 119.864164 
L 838.984523 72.416633 
L 843.878812 122.046748 
L 848.773102 69.685794 
L 853.667392 125.2371 
L 858.561681 65.185913 
L 863.455971 130.8982 
L 868.35026 52.159898 
L 873.24455 173.929815 
L 878.13884 27.569359 
L 883.033129 160.921531 
L 887.927419 35.817154 
L 892.821709 155.35572 
L 897.715998 40.256322 
L 902.610288 151.63002 
L 907.504577 43.490582 
L 912.398867 148.720145 
L 917.293157 46.126616 
L 922.187446 146.265958 
L 927.081736 48.406968 
L 931.976026 144.099424 
L 936.870315 50.45379 
L 941.764605 142.128545 
L 946.658894 52.337497 
L 951.553184 140.297394 
L 956.447474 54.10254 
L 961.341763 138.5693 
L 966.236053 55.778924 
L 971.130343 136.918777 
L 976.024632 57.388013 
L 980.918922 135.32723 
L 985.813212 58.945712 
L 990.707501 133.780503 
L 995.601791 60.464354 
L 1000.49608 132.267381 
L 1005.39037 61.953879 
L 1010.28466 130.778624 
L 1015.178949 63.422616 
L 1020.073239 129.3063 
L 1024.967529 64.877828 
L 1029.861818 127.843311 
L 1029.861818 127.843311 
" clip-path="url(#p522d86e8d6)" style="fill: none; stroke: #8c564b; stroke-width: 1.5; stroke-linecap: square"/>
   </g>
   <g id="line2d_7">
    <path d="M 55.898182 88.108027 
L 60.792471 105.52609 
L 65.686761 88.107695 
L 70.581051 105.526746 
L 75.47534 88.106698 
L 80.36963 105.528059 
L 85.26392 88.105036 
L 90.158209 105.53003 
L 95.052499 88.102706 
L 99.946788 105.532662 
L 104.841078 88.099707 
L 109.735368 105.535956 
L 114.629657 88.096035 
L 119.523947 105.539916 
L 124.418237 88.091687 
L 129.312526 105.544546 
L 134.206816 88.086658 
L 139.101106 105.54985 
L 143.995395 88.080944 
L 148.889685 105.555835 
L 153.783974 88.074538 
L 158.678264 105.562505 
L 163.572554 88.067434 
L 168.466843 105.569868 
L 173.361133 88.059625 
L 178.255423 105.577932 
L 183.149712 88.051102 
L 188.044002 105.586704 
L 192.938291 88.041858 
L 197.832581 105.596193 
L 202.726871 88.031882 
L 207.62116 105.60641 
L 212.51545 88.021163 
L 217.40974 105.617366 
L 222.304029 88.009692 
L 227.198319 105.62907 
L 232.092608 87.997454 
L 236.986898 105.641537 
L 241.881188 87.984438 
L 246.775477 105.654779 
L 251.669767 87.970629 
L 256.564057 105.668811 
L 261.458346 87.956013 
L 266.352636 105.683648 
L 271.246926 87.940572 
L 276.141215 105.699306 
L 281.035505 87.92429 
L 285.929794 105.715803 
L 290.824084 87.907148 
L 295.718374 105.733158 
L 300.612663 87.889128 
L 305.506953 105.751389 
L 310.401243 87.870208 
L 315.295532 105.770519 
L 320.189822 87.850366 
L 325.084111 105.790569 
L 329.978401 87.829579 
L 334.872691 105.811564 
L 339.76698 87.807821 
L 344.66127 105.833528 
L 349.55556 87.785067 
L 354.449849 105.856488 
L 359.344139 87.761288 
L 364.238429 105.880473 
L 369.132718 87.736455 
L 374.027008 105.905512 
L 378.921297 87.710536 
L 383.815587 105.931638 
L 388.709877 87.683497 
L 393.604166 105.958884 
L 398.498456 87.655303 
L 403.392746 105.987286 
L 408.287035 87.625917 
L 413.181325 106.016883 
L 418.075614 87.595298 
L 422.969904 106.047714 
L 427.864194 87.563403 
L 432.758483 106.079823 
L 437.652773 87.530188 
L 442.547063 106.113255 
L 447.441352 87.495605 
L 452.335642 106.148059 
L 457.229931 87.459603 
L 462.124221 106.184286 
L 467.018511 87.422127 
L 471.9128 106.22199 
L 476.80709 87.383121 
L 481.70138 106.261231 
L 486.595669 87.342522 
L 491.489959 106.302069 
L 496.384249 87.300266 
L 501.278538 106.344571 
L 506.172828 87.256282 
L 511.067117 106.388808 
L 515.961407 87.210497 
L 520.855697 106.434854 
L 525.749986 87.162831 
L 530.644276 106.482789 
L 535.538566 87.1132 
L 540.432855 106.532699 
L 545.327145 87.061513 
L 550.221434 106.584676 
L 555.115724 87.007672 
L 560.010014 106.638818 
L 564.904303 86.951575 
L 569.798593 106.69523 
L 574.692883 86.893108 
L 579.587172 106.754024 
L 584.481462 86.832154 
L 589.375751 106.815323 
L 594.270041 86.768582 
L 599.164331 106.879256 
L 604.05862 86.702254 
L 608.95291 106.945964 
L 613.8472 86.633021 
L 618.741489 107.015598 
L 623.635779 86.560721 
L 628.530069 107.088322 
L 633.424358 86.485179 
L 638.318648 107.164313 
L 643.212937 86.406206 
L 648.107227 107.243763 
L 653.001517 86.323597 
L 657.895806 107.326879 
L 662.790096 86.237129 
L 667.684386 107.413888 
L 672.578675 86.14656 
L 677.472965 107.505037 
L 682.367254 86.051623 
L 687.261544 107.600594 
L 692.155834 85.95203 
L 697.050123 107.700854 
L 701.944413 85.847464 
L 706.838703 107.806139 
L 711.732992 85.737575 
L 716.627282 107.916803 
L 721.521571 85.62198 
L 726.415861 108.033237 
L 731.310151 85.500255 
L 736.20444 108.155871 
L 741.09873 85.371933 
L 745.99302 108.285184 
L 750.887309 85.236491 
L 755.781599 108.421705 
L 760.675889 85.093351 
L 765.570178 108.566026 
L 770.464468 84.941865 
L 775.358757 108.718808 
L 780.253047 84.781306 
L 785.147337 108.880793 
L 790.041626 84.610856 
L 794.935916 109.052817 
L 799.830206 84.42959 
L 804.724495 109.235828 
L 809.618785 84.236456 
L 814.513074 109.430901 
L 819.407364 84.030254 
L 824.301654 109.639268 
L 829.195943 83.809607 
L 834.090233 109.862343 
L 838.984523 83.572924 
L 843.878812 110.10176 
L 848.773102 83.318356 
L 853.667392 110.359423 
L 858.561681 83.04374 
L 863.455971 110.637563 
L 868.35026 82.746521 
L 873.24455 110.938817 
L 878.13884 82.423662 
L 883.033129 111.26633 
L 887.927419 82.071509 
L 892.821709 111.623893 
L 897.715998 81.685623 
L 902.610288 112.016121 
L 907.504577 81.260536 
L 912.398867 112.448718 
L 917.293157 80.789421 
L 922.187446 112.928829 
L 927.081736 80.263607 
L 931.976026 113.465569 
L 936.870315 79.671856 
L 941.764605 114.070806 
L 946.658894 78.999265 
L 951.553184 114.760375 
L 956.447474 78.225493 
L 961.341763 115.556049 
L 966.236053 77.32179 
L 971.130343 116.488897 
L 976.024632 76.245671 
L 980.918922 117.605423 
L 985.813212 74.930596 
L 990.707501 118.979772 
L 995.601791 73.263724 
L 1000.49608 120.741099 
L 1005.39037 71.030243 
L 1010.28466 123.1466 
L 1015.178949 67.737863 
L 1020.073239 126.842904 
L 1024.967529 61.772859 
L 1029.861818 134.758619 
L 1029.861818 134.758619 
" clip-path="url(#p522d86e8d6)" style="fill: none; stroke: #e377c2; stroke-width: 1.5; stroke-linecap: square"/>
   </g>
   <g id="line2d_8">
    <path d="M 55.898182 88.194307 
L 60.792471 105.612428 
L 65.686761 88.194122 
L 70.581051 105.612807 
L 75.47534 88.193566 
L 80.36963 105.613565 
L 85.26392 88.192638 
L 90.158209 105.614703 
L 95.052499 88.191339 
L 99.946788 105.616222 
L 104.841078 88.189667 
L 109.735368 105.618123 
L 114.629657 88.18762 
L 119.523947 105.620407 
L 124.418237 88.185198 
L 129.312526 105.623076 
L 134.206816 88.182397 
L 139.101106 105.626133 
L 143.995395 88.179217 
L 148.889685 105.629579 
L 153.783974 88.175654 
L 158.678264 105.633419 
L 163.572554 88.171706 
L 168.466843 105.637653 
L 173.361133 88.167369 
L 178.255423 105.642287 
L 183.149712 88.162641 
L 188.044002 105.647323 
L 192.938291 88.157516 
L 197.832581 105.652766 
L 202.726871 88.151992 
L 207.62116 105.65862 
L 212.51545 88.146063 
L 217.40974 105.66489 
L 222.304029 88.139725 
L 227.198319 105.671582 
L 232.092608 88.132973 
L 236.986898 105.6787 
L 241.881188 88.125801 
L 246.775477 105.68625 
L 251.669767 88.118202 
L 256.564057 105.694239 
L 261.458346 88.110172 
L 266.352636 105.702674 
L 271.246926 88.101702 
L 276.141215 105.711562 
L 281.035505 88.092786 
L 285.929794 105.72091 
L 290.824084 88.083416 
L 295.718374 105.730726 
L 300.612663 88.073585 
L 305.506953 105.74102 
L 310.401243 88.063282 
L 315.295532 105.751799 
L 320.189822 88.052501 
L 325.084111 105.763074 
L 329.978401 88.04123 
L 334.872691 105.774854 
L 339.76698 88.029459 
L 344.66127 105.787151 
L 349.55556 88.017179 
L 354.449849 105.799976 
L 359.344139 88.004378 
L 364.238429 105.813339 
L 369.132718 87.991044 
L 374.027008 105.827255 
L 378.921297 87.977164 
L 383.815587 105.841736 
L 388.709877 87.962726 
L 393.604166 105.856795 
L 398.498456 87.947715 
L 403.392746 105.872448 
L 408.287035 87.932117 
L 413.181325 105.88871 
L 418.075614 87.915917 
L 422.969904 105.905597 
L 427.864194 87.899098 
L 432.758483 105.923126 
L 437.652773 87.881644 
L 442.547063 105.941315 
L 447.441352 87.863537 
L 452.335642 105.960182 
L 457.229931 87.844757 
L 462.124221 105.979749 
L 467.018511 87.825285 
L 471.9128 106.000035 
L 476.80709 87.805101 
L 481.70138 106.021063 
L 486.595669 87.784181 
L 491.489959 106.042856 
L 496.384249 87.762503 
L 501.278538 106.065438 
L 506.172828 87.740043 
L 511.067117 106.088835 
L 515.961407 87.716774 
L 520.855697 106.113075 
L 525.749986 87.692669 
L 530.644276 106.138187 
L 535.538566 87.667701 
L 540.432855 106.164199 
L 545.327145 87.641837 
L 550.221434 106.191146 
L 555.115724 87.615048 
L 560.010014 106.21906 
L 564.904303 87.587298 
L 569.798593 106.247977 
L 574.692883 87.558552 
L 579.587172 106.277935 
L 584.481462 87.528773 
L 589.375751 106.308974 
L 594.270041 87.49792 
L 599.164331 106.341136 
L 604.05862 87.465952 
L 608.95291 106.374466 
L 613.8472 87.432822 
L 618.741489 106.409013 
L 623.635779 87.398485 
L 628.530069 106.444825 
L 633.424358 87.362889 
L 638.318648 106.481957 
L 643.212937 87.325981 
L 648.107227 106.520467 
L 653.001517 87.287704 
L 657.895806 106.560413 
L 662.790096 87.247997 
L 667.684386 106.601862 
L 672.578675 87.206796 
L 677.472965 106.644881 
L 682.367254 87.164033 
L 687.261544 106.689544 
L 692.155834 87.119634 
L 697.050123 106.735929 
L 701.944413 87.073521 
L 706.838703 106.784119 
L 711.732992 87.02561 
L 716.627282 106.834204 
L 721.521571 86.975813 
L 726.415861 106.88628 
L 731.310151 86.924033 
L 736.20444 106.940449 
L 741.09873 86.870168 
L 745.99302 106.996822 
L 750.887309 86.814107 
L 755.781599 107.055516 
L 760.675889 86.755732 
L 765.570178 107.116659 
L 770.464468 86.694916 
L 775.358757 107.180389 
L 780.253047 86.631521 
L 785.147337 107.246854 
L 790.041626 86.565398 
L 794.935916 107.316214 
L 799.830206 86.496387 
L 804.724495 107.388643 
L 809.618785 86.424314 
L 814.513074 107.464329 
L 819.407364 86.34899 
L 824.301654 107.543477 
L 829.195943 86.27021 
L 834.090233 107.626309 
L 838.984523 86.18775 
L 843.878812 107.713069 
L 848.773102 86.101367 
L 853.667392 107.804022 
L 858.561681 86.010793 
L 863.455971 107.89946 
L 868.35026 85.915737 
L 873.24455 107.999703 
L 878.13884 85.815878 
L 883.033129 108.105102 
L 887.927419 85.71086 
L 892.821709 108.216047 
L 897.715998 85.600295 
L 902.610288 108.332968 
L 907.504577 85.483748 
L 912.398867 108.456342 
L 917.293157 85.36074 
L 922.187446 108.586703 
L 927.081736 85.230735 
L 931.976026 108.724645 
L 936.870315 85.093132 
L 941.764605 108.870837 
L 946.658894 84.947261 
L 951.553184 109.026029 
L 956.447474 84.792362 
L 961.341763 109.191073 
L 966.236053 84.62758 
L 971.130343 109.366935 
L 976.024632 84.451937 
L 980.918922 109.554719 
L 985.813212 84.264321 
L 990.707501 109.755691 
L 995.601791 84.063451 
L 1000.49608 109.971315 
L 1005.39037 83.847847 
L 1010.28466 110.203291 
L 1015.178949 83.61579 
L 1020.073239 110.45361 
L 1024.967529 83.365262 
L 1029.861818 110.724622 
L 1029.861818 110.724622 
" clip-path="url(#p522d86e8d6)" style="fill: none; stroke: #7f7f7f; stroke-width: 1.5; stroke-linecap: square"/>
   </g>
   <g id="line2d_9">
    <path d="M 55.898182 88.060743 
L 60.792471 105.47656 
L 65.686761 88.060644 
L 70.581051 105.476754 
L 75.47534 88.060349 
L 80.36963 105.477142 
L 85.26392 88.059857 
L 90.158209 105.477725 
L 95.052499 88.059168 
L 99.946788 105.478502 
L 104.841078 88.058281 
L 109.735368 105.479475 
L 114.629657 88.057195 
L 119.523947 105.480643 
L 124.418237 88.055911 
L 129.312526 105.482008 
L 134.206816 88.054426 
L 139.101106 105.483571 
L 143.995395 88.052741 
L 148.889685 105.485332 
L 153.783974 88.050854 
L 158.678264 105.487293 
L 163.572554 88.048763 
L 168.466843 105.489455 
L 173.361133 88.046469 
L 178.255423 105.491819 
L 183.149712 88.043967 
L 188.044002 105.494387 
L 192.938291 88.041259 
L 197.832581 105.497162 
L 202.726871 88.03834 
L 207.62116 105.500143 
L 212.51545 88.03521 
L 217.40974 105.503335 
L 222.304029 88.031866 
L 227.198319 105.506738 
L 232.092608 88.028307 
L 236.986898 105.510355 
L 241.881188 88.024529 
L 246.775477 105.514189 
L 251.669767 88.02053 
L 256.564057 105.518242 
L 261.458346 88.016308 
L 266.352636 105.522517 
L 271.246926 88.011858 
L 276.141215 105.527016 
L 281.035505 88.00718 
L 285.929794 105.531744 
L 290.824084 88.002268 
L 295.718374 105.536704 
L 300.612663 87.99712 
L 305.506953 105.541898 
L 310.401243 87.991731 
L 315.295532 105.54733 
L 320.189822 87.986099 
L 325.084111 105.553005 
L 329.978401 87.980219 
L 334.872691 105.558927 
L 339.76698 87.974086 
L 344.66127 105.5651 
L 349.55556 87.967697 
L 354.449849 105.571527 
L 359.344139 87.961047 
L 364.238429 105.578216 
L 369.132718 87.95413 
L 374.027008 105.585169 
L 378.921297 87.946941 
L 383.815587 105.592392 
L 388.709877 87.939475 
L 393.604166 105.599892 
L 398.498456 87.931727 
L 403.392746 105.607673 
L 408.287035 87.92369 
L 413.181325 105.615742 
L 418.075614 87.915357 
L 422.969904 105.624105 
L 427.864194 87.906724 
L 432.758483 105.632768 
L 437.652773 87.897782 
L 442.547063 105.641739 
L 447.441352 87.888524 
L 452.335642 105.651024 
L 457.229931 87.878943 
L 462.124221 105.660633 
L 467.018511 87.869031 
L 471.9128 105.670571 
L 476.80709 87.858779 
L 481.70138 105.680848 
L 486.595669 87.84818 
L 491.489959 105.691473 
L 496.384249 87.837223 
L 501.278538 105.702454 
L 506.172828 87.8259 
L 511.067117 105.713801 
L 515.961407 87.814201 
L 520.855697 105.725524 
L 525.749986 87.802114 
L 530.644276 105.737634 
L 535.538566 87.78963 
L 540.432855 105.750141 
L 545.327145 87.776736 
L 550.221434 105.763058 
L 555.115724 87.763421 
L 560.010014 105.776395 
L 564.904303 87.749673 
L 569.798593 105.790167 
L 574.692883 87.735477 
L 579.587172 105.804385 
L 584.481462 87.720821 
L 589.375751 105.819065 
L 594.270041 87.70569 
L 599.164331 105.83422 
L 604.05862 87.690068 
L 608.95291 105.849866 
L 613.8472 87.673939 
L 618.741489 105.866019 
L 623.635779 87.657288 
L 628.530069 105.882696 
L 633.424358 87.640096 
L 638.318648 105.899915 
L 643.212937 87.622345 
L 648.107227 105.917694 
L 653.001517 87.604015 
L 657.895806 105.936053 
L 662.790096 87.585086 
L 667.684386 105.955012 
L 672.578675 87.565536 
L 677.472965 105.974594 
L 682.367254 87.545343 
L 687.261544 105.994821 
L 692.155834 87.524483 
L 697.050123 106.015717 
L 701.944413 87.50293 
L 706.838703 106.037308 
L 711.732992 87.480659 
L 716.627282 106.059621 
L 721.521571 87.45764 
L 726.415861 106.082683 
L 731.310151 87.433845 
L 736.20444 106.106526 
L 741.09873 87.409242 
L 745.99302 106.13118 
L 750.887309 87.383798 
L 755.781599 106.156678 
L 760.675889 87.357478 
L 765.570178 106.183057 
L 770.464468 87.330245 
L 775.358757 106.210354 
L 780.253047 87.30206 
L 785.147337 106.238609 
L 790.041626 87.272881 
L 794.935916 106.267863 
L 799.830206 87.242663 
L 804.724495 106.298161 
L 809.618785 87.211361 
L 814.513074 106.329552 
L 819.407364 87.178923 
L 824.301654 106.362086 
L 829.195943 87.145297 
L 834.090233 106.395816 
L 838.984523 87.110426 
L 843.878812 106.4308 
L 848.773102 87.07425 
L 853.667392 106.4671 
L 858.561681 87.036704 
L 863.455971 106.50478 
L 868.35026 86.997719 
L 873.24455 106.543911 
L 878.13884 86.957222 
L 883.033129 106.584568 
L 887.927419 86.915134 
L 892.821709 106.62683 
L 897.715998 86.871369 
L 902.610288 106.670784 
L 907.504577 86.825838 
L 912.398867 106.716522 
L 917.293157 86.778442 
L 922.187446 106.764144 
L 927.081736 86.729077 
L 931.976026 106.813757 
L 936.870315 86.677629 
L 941.764605 106.865475 
L 946.658894 86.623975 
L 951.553184 106.919425 
L 956.447474 86.567983 
L 961.341763 106.97574 
L 966.236053 86.509509 
L 971.130343 107.034568 
L 976.024632 86.448399 
L 980.918922 107.096066 
L 985.813212 86.384483 
L 990.707501 107.160409 
L 995.601791 86.317576 
L 1000.49608 107.227783 
L 1005.39037 86.247478 
L 1010.28466 107.298395 
L 1015.178949 86.173969 
L 1020.073239 107.372471 
L 1024.967529 86.096808 
L 1029.861818 107.450256 
L 1029.861818 107.450256 
" clip-path="url(#p522d86e8d6)" style="fill: none; stroke: #bcbd22; stroke-width: 1.5; stroke-linecap: square"/>
   </g>
   <g id="line2d_10">
    <path d="M 55.898182 88.145394 
L 60.792471 105.556011 
L 65.686761 88.145351 
L 70.581051 105.556096 
L 75.47534 88.145223 
L 80.36963 105.556266 
L 85.26392 88.145009 
L 90.158209 105.556521 
L 95.052499 88.14471 
L 99.946788 105.556861 
L 104.841078 88.144324 
L 109.735368 105.557286 
L 114.629657 88.143853 
L 119.523947 105.557797 
L 124.418237 88.143295 
L 129.312526 105.558394 
L 134.206816 88.142651 
L 139.101106 105.559077 
L 143.995395 88.14192 
L 148.889685 105.559847 
L 153.783974 88.141101 
L 158.678264 105.560704 
L 163.572554 88.140194 
L 168.466843 105.561648 
L 173.361133 88.139199 
L 178.255423 105.562681 
L 183.149712 88.138115 
L 188.044002 105.563802 
L 192.938291 88.136942 
L 197.832581 105.565013 
L 202.726871 88.135678 
L 207.62116 105.566314 
L 212.51545 88.134322 
L 217.40974 105.567706 
L 222.304029 88.132875 
L 227.198319 105.569189 
L 232.092608 88.131336 
L 236.986898 105.570765 
L 241.881188 88.129702 
L 246.775477 105.572434 
L 251.669767 88.127974 
L 256.564057 105.574198 
L 261.458346 88.126151 
L 266.352636 105.576058 
L 271.246926 88.124231 
L 276.141215 105.578014 
L 281.035505 88.122212 
L 285.929794 105.580068 
L 290.824084 88.120095 
L 295.718374 105.58222 
L 300.612663 88.117877 
L 305.506953 105.584474 
L 310.401243 88.115558 
L 315.295532 105.586829 
L 320.189822 88.113135 
L 325.084111 105.589287 
L 329.978401 88.110608 
L 334.872691 105.59185 
L 339.76698 88.107974 
L 344.66127 105.59452 
L 349.55556 88.105233 
L 354.449849 105.597297 
L 359.344139 88.102382 
L 364.238429 105.600185 
L 369.132718 88.099419 
L 374.027008 105.603184 
L 378.921297 88.096343 
L 383.815587 105.606296 
L 388.709877 88.093151 
L 393.604166 105.609524 
L 398.498456 88.089843 
L 403.392746 105.61287 
L 408.287035 88.086414 
L 413.181325 105.616336 
L 418.075614 88.082864 
L 422.969904 105.619924 
L 427.864194 88.079189 
L 432.758483 105.623636 
L 437.652773 88.075388 
L 442.547063 105.627476 
L 447.441352 88.071457 
L 452.335642 105.631445 
L 457.229931 88.067395 
L 462.124221 105.635547 
L 467.018511 88.063197 
L 471.9128 105.639784 
L 476.80709 88.058862 
L 481.70138 105.64416 
L 486.595669 88.054386 
L 491.489959 105.648677 
L 496.384249 88.049766 
L 501.278538 105.653338 
L 506.172828 88.044998 
L 511.067117 105.658148 
L 515.961407 88.04008 
L 520.855697 105.663109 
L 525.749986 88.035007 
L 530.644276 105.668225 
L 535.538566 88.029776 
L 540.432855 105.6735 
L 545.327145 88.024383 
L 550.221434 105.678939 
L 555.115724 88.018824 
L 560.010014 105.684544 
L 564.904303 88.013094 
L 569.798593 105.690321 
L 574.692883 88.007189 
L 579.587172 105.696274 
L 584.481462 88.001104 
L 589.375751 105.702408 
L 594.270041 87.994835 
L 599.164331 105.708728 
L 604.05862 87.988376 
L 608.95291 105.715238 
L 613.8472 87.981722 
L 618.741489 105.721945 
L 623.635779 87.974868 
L 628.530069 105.728854 
L 633.424358 87.967807 
L 638.318648 105.73597 
L 643.212937 87.960534 
L 648.107227 105.743301 
L 653.001517 87.953042 
L 657.895806 105.750851 
L 662.790096 87.945325 
L 667.684386 105.758629 
L 672.578675 87.937376 
L 677.472965 105.76664 
L 682.367254 87.929187 
L 687.261544 105.774893 
L 692.155834 87.920751 
L 697.050123 105.783395 
L 701.944413 87.912061 
L 706.838703 105.792154 
L 711.732992 87.903107 
L 716.627282 105.801179 
L 721.521571 87.893881 
L 726.415861 105.810478 
L 731.310151 87.884374 
L 736.20444 105.82006 
L 741.09873 87.874577 
L 745.99302 105.829935 
L 750.887309 87.86448 
L 755.781599 105.840113 
L 760.675889 87.854071 
L 765.570178 105.850606 
L 770.464468 87.843341 
L 775.358757 105.861423 
L 780.253047 87.832277 
L 785.147337 105.872577 
L 790.041626 87.820867 
L 794.935916 105.884081 
L 799.830206 87.8091 
L 804.724495 105.895946 
L 809.618785 87.79696 
L 814.513074 105.908187 
L 819.407364 87.784435 
L 824.301654 105.920817 
L 829.195943 87.771509 
L 834.090233 105.933853 
L 838.984523 87.758167 
L 843.878812 105.94731 
L 848.773102 87.744392 
L 853.667392 105.961204 
L 858.561681 87.730167 
L 863.455971 105.975554 
L 868.35026 87.715474 
L 873.24455 105.990378 
L 878.13884 87.700293 
L 883.033129 106.005695 
L 887.927419 87.684603 
L 892.821709 106.021526 
L 897.715998 87.668385 
L 902.610288 106.037894 
L 907.504577 87.651613 
L 912.398867 106.054822 
L 917.293157 87.634265 
L 922.187446 106.072334 
L 927.081736 87.616315 
L 931.976026 106.090456 
L 936.870315 87.597735 
L 941.764605 106.109216 
L 946.658894 87.578497 
L 951.553184 106.128644 
L 956.447474 87.55857 
L 961.341763 106.14877 
L 966.236053 87.537921 
L 971.130343 106.169628 
L 976.024632 87.516517 
L 980.918922 106.191253 
L 985.813212 87.494319 
L 990.707501 106.213683 
L 995.601791 87.47129 
L 1000.49608 106.236958 
L 1005.39037 87.447386 
L 1010.28466 106.261121 
L 1015.178949 87.422564 
L 1020.073239 106.286218 
L 1024.967529 87.396774 
L 1029.861818 106.312296 
L 1029.861818 106.312296 
" clip-path="url(#p522d86e8d6)" style="fill: none; stroke: #17becf; stroke-width: 1.5; stroke-linecap: square"/>
   </g>
   <g id="line2d_11">
    <path d="M 55.898182 88.174635 
L 60.792471 105.576489 
L 65.686761 88.174622 
L 70.581051 105.576515 
L 75.47534 88.174585 
L 80.36963 105.576566 
L 85.26392 88.174523 
L 90.158209 105.576642 
L 95.052499 88.174436 
L 99.946788 105.576745 
L 104.841078 88.174324 
L 109.735368 105.576873 
L 114.629657 88.174187 
L 119.523947 105.577027 
L 124.418237 88.174025 
L 129.312526 105.577206 
L 134.206816 88.173838 
L 139.101106 105.577412 
L 143.995395 88.173626 
L 148.889685 105.577644 
L 153.783974 88.173388 
L 158.678264 105.577901 
L 163.572554 88.173125 
L 168.466843 105.578186 
L 173.361133 88.172836 
L 178.255423 105.578496 
L 183.149712 88.172522 
L 188.044002 105.578833 
L 192.938291 88.172181 
L 197.832581 105.579197 
L 202.726871 88.171815 
L 207.62116 105.579588 
L 212.51545 88.171422 
L 217.40974 105.580006 
L 222.304029 88.171002 
L 227.198319 105.580452 
L 232.092608 88.170556 
L 236.986898 105.580925 
L 241.881188 88.170083 
L 246.775477 105.581427 
L 251.669767 88.169582 
L 256.564057 105.581956 
L 261.458346 88.169054 
L 266.352636 105.582514 
L 271.246926 88.168498 
L 276.141215 105.583101 
L 281.035505 88.167914 
L 285.929794 105.583717 
L 290.824084 88.167302 
L 295.718374 105.584362 
L 300.612663 88.16666 
L 305.506953 105.585037 
L 310.401243 88.16599 
L 315.295532 105.585743 
L 320.189822 88.16529 
L 325.084111 105.586479 
L 329.978401 88.16456 
L 334.872691 105.587246 
L 339.76698 88.1638 
L 344.66127 105.588044 
L 349.55556 88.163009 
L 354.449849 105.588875 
L 359.344139 88.162187 
L 364.238429 105.589738 
L 369.132718 88.161333 
L 374.027008 105.590633 
L 378.921297 88.160447 
L 383.815587 105.591563 
L 388.709877 88.159528 
L 393.604166 105.592526 
L 398.498456 88.158576 
L 403.392746 105.593524 
L 408.287035 88.15759 
L 413.181325 105.594556 
L 418.075614 88.156569 
L 422.969904 105.595625 
L 427.864194 88.155514 
L 432.758483 105.59673 
L 437.652773 88.154423 
L 442.547063 105.597872 
L 447.441352 88.153295 
L 452.335642 105.599052 
L 457.229931 88.152131 
L 462.124221 105.60027 
L 467.018511 88.150929 
L 471.9128 105.601528 
L 476.80709 88.149688 
L 481.70138 105.602826 
L 486.595669 88.148408 
L 491.489959 105.604165 
L 496.384249 88.147088 
L 501.278538 105.605545 
L 506.172828 88.145727 
L 511.067117 105.606968 
L 515.961407 88.144324 
L 520.855697 105.608435 
L 525.749986 88.142878 
L 530.644276 105.609946 
L 535.538566 88.141389 
L 540.432855 105.611503 
L 545.327145 88.139855 
L 550.221434 105.613106 
L 555.115724 88.138275 
L 560.010014 105.614757 
L 564.904303 88.136648 
L 569.798593 105.616457 
L 574.692883 88.134973 
L 579.587172 105.618207 
L 584.481462 88.133249 
L 589.375751 105.620008 
L 594.270041 88.131475 
L 599.164331 105.621861 
L 604.05862 88.129649 
L 608.95291 105.623769 
L 613.8472 88.127771 
L 618.741489 105.625732 
L 623.635779 88.125838 
L 628.530069 105.627751 
L 633.424358 88.123849 
L 638.318648 105.629828 
L 643.212937 88.121803 
L 648.107227 105.631966 
L 653.001517 88.119699 
L 657.895806 105.634164 
L 662.790096 88.117534 
L 667.684386 105.636426 
L 672.578675 88.115307 
L 677.472965 105.638752 
L 682.367254 88.113016 
L 687.261544 105.641145 
L 692.155834 88.11066 
L 697.050123 105.643607 
L 701.944413 88.108236 
L 706.838703 105.646139 
L 711.732992 88.105743 
L 716.627282 105.648744 
L 721.521571 88.103178 
L 726.415861 105.651424 
L 731.310151 88.10054 
L 736.20444 105.65418 
L 741.09873 88.097826 
L 745.99302 105.657017 
L 750.887309 88.095033 
L 755.781599 105.659935 
L 760.675889 88.09216 
L 765.570178 105.662937 
L 770.464468 88.089203 
L 775.358757 105.666027 
L 780.253047 88.086161 
L 785.147337 105.669207 
L 790.041626 88.08303 
L 794.935916 105.67248 
L 799.830206 88.079807 
L 804.724495 105.675849 
L 809.618785 88.07649 
L 814.513074 105.679317 
L 819.407364 88.073075 
L 824.301654 105.682887 
L 829.195943 88.069558 
L 834.090233 105.686564 
L 838.984523 88.065937 
L 843.878812 105.690351 
L 848.773102 88.062208 
L 853.667392 105.694251 
L 858.561681 88.058366 
L 863.455971 105.698269 
L 868.35026 88.054409 
L 873.24455 105.702409 
L 878.13884 88.050331 
L 883.033129 105.706676 
L 887.927419 88.046128 
L 892.821709 105.711073 
L 897.715998 88.041796 
L 902.610288 105.715607 
L 907.504577 88.037329 
L 912.398867 105.720282 
L 917.293157 88.032724 
L 922.187446 105.725103 
L 927.081736 88.027973 
L 931.976026 105.730077 
L 936.870315 88.023072 
L 941.764605 105.735208 
L 946.658894 88.018015 
L 951.553184 105.740505 
L 956.447474 88.012795 
L 961.341763 105.745972 
L 966.236053 88.007406 
L 971.130343 105.751618 
L 976.024632 88.001841 
L 980.918922 105.757449 
L 985.813212 87.996092 
L 990.707501 105.763474 
L 995.601791 87.990153 
L 1000.49608 105.7697 
L 1005.39037 87.984014 
L 1010.28466 105.776137 
L 1015.178949 87.977667 
L 1020.073239 105.782792 
L 1024.967529 87.971103 
L 1029.861818 105.789677 
L 1029.861818 105.789677 
" clip-path="url(#p522d86e8d6)" style="fill: none; stroke: #1f77b4; stroke-width: 1.5; stroke-linecap: square"/>
   </g>
  </g>
 </g>
 <defs>
  <clipPath id="p522d86e8d6">
   <rect x="7.2" y="7.2" width="1071.36" height="177.408"/>
  </clipPath>
 </defs>
</svg>
